# xmcd
#
# Track frame offsets:
#	750
#	14338
#	31313
#	45263
#	55513
#	67983
#	80423
#	93250
#	112390
#	127375
#	142770
#	157400
#	167305
#	182575
#	195413
#	208278
#	225598
#	253063
#	260563
#
# Disc length: 3482 seconds
#
# Revision: 1
# Processed by: cddbd v1.5.1PL0 Copyright (c) Steve Scherf et al.
# Submitted via: audiograbber 1.83.01
#
DISCID=030d9013
DTITLE=Heino - Das Beste zum Jubilaeum 2v2
DYEAR=2004
DGENRE=Volksmusik
TTITLE0=Wir wandern zum Tor hinaus
TTITLE1=Wandern, ach Wandern
TTITLE2=Von den Bergen rauscht ein Wasser
TTITLE3=Lasst uns wandern
TTITLE4=Ein Heller und ein Batzen
TTITLE5=Hohe Tannen
TTITLE6=Hoch auf dem gelben Wagen
TTITLE7=Am Lagerfeuer
TTITLE8=Ich weiss nicht was soll es bedeuten
TTITLE9=Wenn du noch eine Mutter hast
TTITLE10=Ach, ich hab in meinem Herzen
TTITLE11=Das ist der Tag des Herrn
TTITLE12=Waldandacht
TTITLE13=Teure Heimat
TTITLE14=Trinkt! Trinkt!
TTITLE15=Frieden auf Ewigkeit
TTITLE16=Danke ist mehr als ein Wort
TTITLE17=Daten-CD
TTITLE18=Daten-CD
EXTD=
EXTT0=
EXTT1=
EXTT2=
EXTT3=
EXTT4=
EXTT5=
EXTT6=
EXTT7=
EXTT8=
EXTT9=
EXTT10=
EXTT11=
EXTT12=
EXTT13=
EXTT14=
EXTT15=
EXTT16=
EXTT17=
EXTT18=
PLAYORDER=
